<svg xmlns="http://www.w3.org/2000/svg" width="512" height="512" viewBox="0 0 512 512" role="img" aria-label="ReadAway">
  <rect width="512" height="512" rx="112" fill="#14111f"/>
  <path fill="#8a3ffc" d="M271.171 427.875c-5.179 6.591-15.764 2.925-15.764-5.444v-80.364c0-9.743-7.644-17.643-17.644-17.643h-88.733c-7.176 0-11.357-8.112-7.176-13.946l58.344-81.674c8.346-11.677 0-27.908-14.368-27.908H78.438c-7.176 0-11.357-8.112-7.176-13.946l75.66-105.893c1.669-2.317 4.337-3.698 7.176-3.698h225.373c7.176 0 11.357 8.112 7.176 13.946l-58.344 81.674c-8.346 11.684 0 27.916 14.368 27.916h88.741c7.355 0 11.489 8.486 6.942 14.274L271.171 427.875z"/>
  <path fill="#ffffff" opacity="0.22" d="M147.078 81.057c1.669-2.317 4.337-3.698 7.176-3.698h225.373c7.176 0 11.357 8.112 7.176 13.946l-58.344 81.674c-2.03 2.84-3.074 5.951-3.206 9.035H74.57l72.508-100.957z"/>
  <path fill="#47bfff" opacity="0.34" d="M271.171 427.875c-5.179 6.591-15.764 2.925-15.764-5.444v-80.364c0-9.743-7.644-17.643-17.644-17.643h-88.733c-7.176 0-11.357-8.112-7.176-13.946l9.025-12.636h169.923l-49.631 130.033z"/>
</svg>
